<?xml version="1.0" encoding="utf-8"?>
<!-- Generator: Adobe Illustrator 21.0.2, SVG Export Plug-In . SVG Version: 6.00 Build 0)  -->
<svg version="1.0" id="Layer_1" xmlns="http://www.w3.org/2000/svg" xmlns:xlink="http://www.w3.org/1999/xlink" x="0px" y="0px"
	 viewBox="0 0 400 400" enable-background="new 0 0 400 400" xml:space="preserve">
<path fill="#454546" d="M98.5,45.1c-35.8,0-65,31.6-65,70.5c0,38.9,29.2,70.5,65,70.5s65-31.6,65-70.5
	C163.5,76.7,134.3,45.1,98.5,45.1z M98.5,181.8c-33.7,0-61.1-29.7-61.1-66.2c0-36.5,27.4-66.2,61.1-66.2s61.1,29.7,61.1,66.2
	C159.6,152,132.2,181.8,98.5,181.8z M127.3,97.6h-6.9v-6.3c0-6.6-4.9-11.9-11-11.9H71.2c-6,0-11,5.3-11,11.9v26.2
	c0,5.8,3.9,10.7,9,11.7v12.2c0,0.8,0.4,1.6,1.1,1.9c0.3,0.1,0.5,0.2,0.8,0.2c0.5,0,0.9-0.2,1.3-0.5L86,130.6
	c0.4,5.2,4.4,9.4,9.4,9.4h18.2l12.4,11.3c0.4,0.3,0.8,0.5,1.3,0.5c0.3,0,0.6-0.1,0.8-0.2c0.7-0.3,1.1-1.1,1.1-1.9v-9.9
	c4.3-1,7.5-5.1,7.5-10v-21.8C136.7,102.2,132.5,97.6,127.3,97.6z M73.2,136.8v-9.6c0-1.2-0.9-2.1-2-2.1c-3.9,0-7-3.4-7-7.6V91.2
	c0-4.2,3.2-7.6,7-7.6h38.2c3.9,0,7,3.4,7,7.6v8.5v17.7c0,4.2-3.2,7.6-7,7.6H87.9h-1.2c-0.5,0-0.9,0.2-1.3,0.5L73.2,136.8z
	 M132.8,129.7c0,3.3-2.5,6-5.5,6c-1.1,0-2,1-2,2.1v7.2l-9.7-8.8c-0.4-0.3-0.8-0.5-1.3-0.5H95.4c-3.1,0-5.5-2.7-5.5-6v-0.4h19.5
	c6,0,11-5.3,11-11.9v-15.6h6.9c3.1,0,5.5,2.7,5.5,6V129.7z M87.3,103.7c0-1.8,1.4-3.3,3-3.3c1.7,0,3,1.5,3,3.3c0,1.8-1.4,3.3-3,3.3
	C88.6,107,87.3,105.5,87.3,103.7z M101.2,103.7c0-1.8,1.4-3.3,3-3.3c1.7,0,3,1.5,3,3.3c0,1.8-1.4,3.3-3,3.3
	C102.6,107,101.2,105.5,101.2,103.7z M79.4,103.7c0,1.8-1.4,3.3-3,3.3c-1.7,0-3-1.5-3-3.3c0-1.8,1.4-3.3,3-3.3
	C78.1,100.4,79.4,101.9,79.4,103.7z"/>
<path fill="#454546" d="M299.8,44c-38.2,0-69.4,32.1-69.4,71.5c0,39.4,31.1,71.5,69.4,71.5c38.2,0,69.4-32.1,69.4-71.5
	C369.2,76.1,338.1,44,299.8,44z M299.8,182.7c-35.9,0-65.2-30.1-65.2-67.2c0-37,29.2-67.2,65.2-67.2c35.9,0,65.2,30.1,65.2,67.2
	C365,152.6,335.7,182.7,299.8,182.7z M330.7,79.2l-30.9,15.5h-18h-5.7c-5.6,0-10.1,4.7-10.1,10.4v11.8c0,5.7,4.5,10.3,10,10.4v12.2
	c0,6.1,4.9,12.6,12.2,12.6c3,0,5.3-1.3,6.6-3.6c1.6-2.8,1.4-6.7-0.4-10.1c-1.3-2.5-1.7-7.8-1.7-11.2h7l30.9,15.5
	c0.3,0.1,0.6,0.2,0.9,0.2c0.4,0,0.8-0.1,1.1-0.3c0.6-0.4,1-1.1,1-1.8V81.1c0-0.7-0.4-1.4-1-1.8C332.1,78.9,331.3,78.8,330.7,79.2z
	 M298.1,123h-7.4h-6.8v-24h14.3V123z M270.1,116.9V105c0-3.4,2.7-6.1,5.9-6.1h3.6v24H278h-2C272.8,123,270.1,120.2,270.1,116.9z
	 M290.8,140.5c1.1,2,1.2,4.4,0.4,5.8c-0.6,1-1.5,1.4-3,1.4c-4.8,0-8.1-4.3-8.1-8.3v-12.2h1.7h6.8C288.6,130.7,288.9,137,290.8,140.5
	z M329.5,137.4l-27.2-13.6V98.1l27.2-13.6V137.4z"/>
<path fill="#454546" d="M197.6,298.4c-0.5,0-1,0.1-1.5,0.4c0.3-0.6,0.5-1.2,0.5-1.9c0-1-0.4-2-1.1-2.8c-0.7-0.7-1.7-1.1-2.7-1.1
	c-0.5,0-1.1,0.1-1.5,0.3c0.2-0.5,0.3-1,0.3-1.6c0-1-0.4-2-1.1-2.8c-0.7-0.7-1.7-1.1-2.7-1.1c-0.5,0-1.1,0.1-1.5,0.3
	c0.6-1.4,0.4-3.2-0.8-4.3c-0.7-0.7-1.7-1.1-2.7-1.1c-1,0-2,0.4-2.7,1.1l-1.3,1.3c-1.5,1.5-1.5,4,0,5.5c0.7,0.7,1.7,1.1,2.7,1.1
	c0.5,0,1.1-0.1,1.5-0.3c-0.6,1.4-0.4,3.2,0.8,4.3c0.7,0.7,1.7,1.1,2.7,1.1c0.5,0,1.1-0.1,1.5-0.3c-0.6,1.4-0.4,3.2,0.8,4.3
	c0.7,0.7,1.7,1.1,2.7,1.1c0.7,0,1.4-0.2,2.1-0.6c-0.2,0.4-0.3,0.9-0.3,1.3c0,0.9,0.3,1.7,0.9,2.3c0.6,0.6,1.4,1,2.3,1
	c0.9,0,1.7-0.3,2.3-1l1.1-1.1c1.3-1.3,1.3-3.4,0-4.7C199.3,298.7,198.5,298.4,197.6,298.4z"/>
<path fill="#454546" d="M220.9,281.6l-12.4-12.7l-2.6,2.6l12.4,12.7c0.3,0.3,0.5,0.8,0.5,1.3c0,0.5-0.2,0.9-0.5,1.3
	c-0.3,0.3-0.8,0.5-1.2,0.5c-0.5,0-0.9-0.2-1.2-0.5l-2.3-2.3l-2.6,2.6l2.3,2.3c0.7,0.7,0.7,1.8,0,2.5c-0.3,0.3-0.8,0.5-1.2,0.5
	c-0.5,0-0.9-0.2-1.2-0.5h0l-2.3-2.3l-2.6,2.6l2.3,2.3l0,0c0.7,0.7,0.7,1.8,0,2.5c-0.3,0.3-0.8,0.5-1.2,0.5c-0.5,0-0.9-0.2-1.2-0.5h0
	l-2.3-2.3l-2.6,2.6l2.3,2.3l0,0c0.7,0.7,0.7,1.8,0,2.5c-0.3,0.3-0.7,0.5-1.2,0.5c0,0.8-0.4,1.6-0.9,2.2l-0.9,1
	c0.3,0.2,0.9,0.5,1.8,0.6v0c0,0,0,0,0.1,0c0.1,0,0.2,0,0.4,0c0.2,0,0.3,0,0.4-0.1c1.1-0.2,2.1-0.7,3-1.5c1-1,1.5-2.3,1.6-3.5
	c1.3-0.1,2.5-0.6,3.5-1.6c1-1,1.5-2.3,1.6-3.5c1.3-0.1,2.5-0.6,3.5-1.6c1-1,1.5-2.3,1.6-3.5c1.3-0.1,2.5-0.6,3.5-1.6
	c1-1,1.6-2.4,1.6-3.9C222.4,284,221.9,282.6,220.9,281.6z"/>
<path fill="#454546" d="M199.2,259.3c-2.4-2.5-6.2-2.9-9-1.2l-5.1-5.2l1.6-1.6l-2.6-2.6L166.2,267l2.6,2.6l1.5-1.6l5.1,5.2
	c-1.7,2.9-1.3,6.8,1.2,9.3l1.3,1.4l2.6-2.6l-1.3-1.4c-1.5-1.5-1.5-4,0-5.5l1.2-1.3l-7.4-7.6l9.6-9.9l7.4,7.6l1.3-1.3
	c1.5-1.5,3.9-1.5,5.4,0l1.8,1.8l2.6-2.6L199.2,259.3z"/>
<path fill="#454546" d="M233.9,269.6l2.6-2.6l-17.9-18.3l-2.6,2.6l2.4,2.4l-4.8,4.9c-1.1-1-2.5-1.5-3.9-1.5c-1.6,0-3.1,0.6-4.2,1.8
	l-2.5,2.6l-0.4,0.4l0,0l-4.8,4.9c-0.2,0.2-0.4,0.5-0.6,0.7c-0.4,0.6-0.6,1.3-0.6,2.1v8.7c0,2.1,1.7,3.9,3.8,3.9s3.8-1.7,3.8-3.9
	v-7.1l4.8-4.9l13.7,14.1c0.4,0.4,0.6,0.8,0.8,1.3l0.1,0.4l2.1-2.2c2.2-2.3,2.3-5.9,0.2-8.3l4.8-4.9L233.9,269.6z"/>
<path fill="#454546" d="M201.3,348.4c-18.4,0-35.8-7.4-48.8-20.7c-13-13.4-20.2-31.2-20.2-50.1c0-18.9,7.2-36.7,20.2-50.1
	c13-13.4,30.4-20.7,48.8-20.7c18.4,0,35.8,7.4,48.8,20.7c13,13.4,20.2,31.2,20.2,50.1c0,18.9-7.2,36.7-20.2,50.1
	C237.1,341,219.8,348.4,201.3,348.4z M201.3,210.4c-36.1,0-65.4,30.1-65.4,67.1c0,37,29.4,67.1,65.4,67.1
	c36.1,0,65.4-30.1,65.4-67.1C266.8,240.5,237.4,210.4,201.3,210.4z"/>
</svg>
